<?xml version="1.0" encoding="utf-8"?>
<!-- Generator: Adobe Illustrator 15.0.0, SVG Export Plug-In . SVG Version: 6.00 Build 0)  -->
<!DOCTYPE svg PUBLIC "-//W3C//DTD SVG 1.1//EN" "http://www.w3.org/Graphics/SVG/1.1/DTD/svg11.dtd">
<svg version="1.1" id="Layer_1" xmlns="http://www.w3.org/2000/svg" xmlns:xlink="http://www.w3.org/1999/xlink" x="0px" y="0px"
	 width="50px" height="50px" viewBox="0 0 50 50" enable-background="new 0 0 50 50" xml:space="preserve">
<g>
	<path fill="#FBB03B" d="M31.539,40.648c-0.635,0-1.23-0.395-1.457-1.025c-0.289-0.805,0.128-1.69,0.934-1.98
		c7.046-2.529,11.78-9.262,11.78-16.752c0-9.813-7.983-17.795-17.796-17.795c-9.812,0-17.795,7.982-17.795,17.795
		c0,7.318,4.588,13.998,11.419,16.618c0.798,0.307,1.197,1.202,0.89,2c-0.306,0.798-1.199,1.199-1.999,0.89
		C9.497,37.321,4.109,29.481,4.109,20.891C4.109,9.371,13.481,0,25,0c11.52,0,20.891,9.371,20.891,20.891
		c0,8.793-5.558,16.695-13.83,19.665C31.889,40.619,31.713,40.648,31.539,40.648"/>
	<path fill="#FBB03B" d="M31.019,34.137c-0.561,0-1.102-0.307-1.376-0.84c-0.392-0.76-0.094-1.692,0.666-2.084
		c0.801-0.412,1.553-0.917,2.236-1.504c2.581-2.21,4.062-5.424,4.062-8.818c0-3.541-1.587-6.842-4.352-9.06
		c-2.076-1.666-4.585-2.547-7.254-2.547c-3.391,0-6.602,1.478-8.812,4.052c-1.803,2.1-2.795,4.782-2.795,7.555
		c0,2.886,1.066,5.653,3.004,7.789c0.836,0.926,1.811,1.705,2.893,2.317c0.743,0.421,1.005,1.365,0.584,2.108
		c-0.421,0.745-1.365,1.007-2.109,0.584c-1.369-0.774-2.602-1.761-3.662-2.932c-2.452-2.706-3.805-6.211-3.805-9.867
		c0-3.511,1.259-6.91,3.542-9.57C16.64,8.06,20.708,6.19,25.001,6.19c3.333,0,6.597,1.146,9.19,3.227
		c3.501,2.808,5.51,6.99,5.51,11.474c0,4.299-1.875,8.371-5.143,11.167c-0.866,0.742-1.818,1.385-2.832,1.906
		C31.5,34.081,31.258,34.137,31.019,34.137"/>
	<path fill="#FBB03B" d="M31.93,20.891c0,3.826-3.103,6.929-6.93,6.929c-3.826,0-6.929-3.103-6.929-6.929
		c0-3.827,3.103-6.929,6.929-6.929C28.827,13.961,31.93,17.064,31.93,20.891"/>
	<path fill="#FBB03B" d="M30.604,42.646c-0.551-0.552-1.013-0.552-1.565,0l-2.099,2.532V31.2c0-0.78-1.037-1.413-1.817-1.413
		s-1.818,0.633-1.818,1.413v13.742l-2.324-2.297c-0.553-0.552-1.46-0.552-2.012,0s-0.559,1.445-0.008,1.997l4.376,4.379
		c0.067,0.205,0.165,0.402,0.328,0.565C23.94,49.862,24.302,50,24.662,50c0.04,0,0.077-0.02,0.117-0.022
		C24.819,49.98,24.857,50,24.897,50c0.361,0,0.723-0.138,0.998-0.413c0.164-0.163,0.263-0.36,0.329-0.565l4.379-4.379
		C31.155,44.091,31.155,43.197,30.604,42.646"/>
</g>
</svg>
