<?xml version="1.0" encoding="utf-8"?>
<!-- Generator: Adobe Illustrator 15.0.0, SVG Export Plug-In . SVG Version: 6.00 Build 0)  -->
<!DOCTYPE svg PUBLIC "-//W3C//DTD SVG 1.1//EN" "http://www.w3.org/Graphics/SVG/1.1/DTD/svg11.dtd">
<svg version="1.1" id="Layer_1" xmlns="http://www.w3.org/2000/svg" xmlns:xlink="http://www.w3.org/1999/xlink" x="0px" y="0px"
	 width="50px" height="50px" viewBox="0 0 50 50" enable-background="new 0 0 50 50" xml:space="preserve">
<g>
	<g>
		<path fill="#FBB03B" d="M25,50C11.215,50,0,38.785,0,25C0,11.216,11.215,0,25,0s25,11.216,25,25C50,38.785,38.785,50,25,50z
			 M25,3.704C13.257,3.704,3.704,13.258,3.704,25c0,11.743,9.553,21.296,21.296,21.296c11.742,0,21.296-9.553,21.296-21.296
			C46.296,13.258,36.742,3.704,25,3.704z"/>
	</g>
	<g>
		<path fill="#FBB03B" d="M25,42.593c-4.957,0-9.71-2.108-13.04-5.783C9.024,33.571,7.407,29.376,7.407,25
			c0-4.201,1.505-8.268,4.237-11.452c3.35-3.902,8.217-6.14,13.355-6.14c3.986,0,7.893,1.371,10.998,3.861
			c4.191,3.36,6.595,8.365,6.595,13.73c0,5.145-2.244,10.017-6.154,13.367C33.257,41.093,29.193,42.593,25,42.593z M25,11.111
			c-4.057,0-7.9,1.768-10.545,4.849c-2.156,2.513-3.344,5.724-3.344,9.04c0,3.455,1.276,6.767,3.593,9.323
			c2.63,2.901,6.382,4.565,10.296,4.565c3.312,0,6.518-1.185,9.029-3.335c3.088-2.645,4.859-6.492,4.859-10.554
			c0-4.235-1.897-8.187-5.207-10.842C31.195,12.165,28.193,11.111,25,11.111z"/>
	</g>
	<path fill="#FBB03B" d="M34.933,21.94c-0.163-0.502-0.598-0.869-1.121-0.945l-5.117-0.744l-2.289-4.637
		c-0.233-0.474-0.717-0.774-1.245-0.774s-1.011,0.301-1.246,0.774l-2.289,4.637l-5.117,0.744c-0.523,0.076-0.958,0.443-1.122,0.945
		c-0.163,0.503-0.026,1.055,0.352,1.424l3.703,3.609l-0.874,5.097c-0.089,0.521,0.125,1.048,0.553,1.358
		c0.242,0.176,0.528,0.266,0.816,0.266c0.221,0,0.443-0.053,0.646-0.159l4.577-2.407l4.576,2.407
		c0.468,0.245,1.033,0.205,1.463-0.106c0.428-0.311,0.643-0.837,0.553-1.357l-0.874-5.098l3.703-3.609
		C34.96,22.995,35.096,22.443,34.933,21.94z"/>
</g>
</svg>
