<?xml version="1.0" encoding="utf-8"?>
<!-- Generator: Adobe Illustrator 15.0.0, SVG Export Plug-In . SVG Version: 6.00 Build 0)  -->
<!DOCTYPE svg PUBLIC "-//W3C//DTD SVG 1.1//EN" "http://www.w3.org/Graphics/SVG/1.1/DTD/svg11.dtd">
<svg version="1.1" id="Layer_1" xmlns="http://www.w3.org/2000/svg" xmlns:xlink="http://www.w3.org/1999/xlink" x="0px" y="0px"
	 width="50px" height="50px" viewBox="0 0 50 50" enable-background="new 0 0 50 50" xml:space="preserve">
<g>
	<g>
		<path fill="#EA5455" d="M11.083-0.086L11.083-0.086c-4.62,0-8.4,3.715-8.4,8.256c0,2.743,8.449,16.942,8.449,16.942
			s8.351-14.266,8.351-16.942C19.482,3.629,15.702-0.086,11.083-0.086 M11.213,12.686c-2.754,0-4.987-2.195-4.987-4.901
			c0-2.708,2.233-4.903,4.987-4.903s4.988,2.195,4.988,4.903C16.201,10.49,13.968,12.686,11.213,12.686"/>
	</g>
	<g>
		<path fill="#EA5455" d="M38.801-0.086L38.801-0.086c-4.62,0-8.399,3.715-8.399,8.256c0,2.743,8.448,16.942,8.448,16.942
			S47.2,10.847,47.2,8.17C47.2,3.629,43.42-0.086,38.801-0.086 M38.932,12.686c-2.755,0-4.987-2.195-4.987-4.901
			c0-2.708,2.232-4.903,4.987-4.903c2.754,0,4.987,2.195,4.987,4.903C43.919,10.49,41.686,12.686,38.932,12.686"/>
	</g>
	<path fill="#FBB03B" d="M40.498,32.344c-4.11,0-7.557,2.656-8.463,6.656H18.201c-0.906-4-4.4-6.772-8.583-6.772
		c-4.872,0-8.82,3.972-8.82,8.843s3.948,8.922,8.82,8.922c4.28,0,7.845-2.992,8.648-6.992h13.7c0.804,4,4.323,6.888,8.531,6.888
		c4.799,0,8.703-3.973,8.703-8.772C49.201,36.317,45.297,32.344,40.498,32.344z M40.498,46.074c-2.747,0-4.981-2.234-4.981-4.98
		s2.234-4.979,4.981-4.979c2.746,0,4.979,2.233,4.979,4.979S43.244,46.074,40.498,46.074z"/>
</g>
</svg>
