<?xml version="1.0" encoding="utf-8"?>
<!-- Generator: Adobe Illustrator 15.0.0, SVG Export Plug-In . SVG Version: 6.00 Build 0)  -->
<!DOCTYPE svg PUBLIC "-//W3C//DTD SVG 1.1//EN" "http://www.w3.org/Graphics/SVG/1.1/DTD/svg11.dtd">
<svg version="1.1" id="Layer_1" xmlns="http://www.w3.org/2000/svg" xmlns:xlink="http://www.w3.org/1999/xlink" x="0px" y="0px"
	 width="50px" height="50px" viewBox="0 0 50 50" enable-background="new 0 0 50 50" xml:space="preserve">
<path fill="#FBB03B" d="M46.53,25.567c-1.057,0-1.79,0.905-2.325,1.565c-0.067,0.085-0.152,0.189-0.221,0.271H37.47L33.93,9.989
	c-0.215-1.053-1.12-1.816-2.171-1.816c-0.602,0-1.853,0-2.157,1.313l-4.445,18.983l-2.659-12.424
	c-0.215-0.992-1.076-1.75-2.043-1.801c-1.223-0.074-1.998,1.234-2.23,1.946l-3.547,11.214H6.016
	c-0.071-0.082-0.153-0.187-0.222-0.271c-0.534-0.659-1.267-1.565-2.325-1.565C1.491,25.567,0,26.964,0,28.816
	c0,1.936,1.557,3.509,3.469,3.509c0.621,0,1.825,0,2.628-1.075h10.194c1.067,0,1.839-0.871,2.106-1.683l1.481-4.568l3.024,14.502
	c0.194,0.898,0.951,2.326,2.168,2.326c1.327,0,2.007-1.681,2.157-2.331l4.397-19.162l1.864,9.149
	c0.209,1.024,1.121,1.767,2.171,1.767h8.247c0.747,0.966,1.854,0.966,2.623,0.966c1.945,0,3.47-1.461,3.47-3.325
	C50,27.027,48.476,25.567,46.53,25.567"/>
</svg>
