<?xml version="1.0" encoding="utf-8"?>
<!-- Generator: Adobe Illustrator 15.0.0, SVG Export Plug-In . SVG Version: 6.00 Build 0)  -->
<!DOCTYPE svg PUBLIC "-//W3C//DTD SVG 1.1//EN" "http://www.w3.org/Graphics/SVG/1.1/DTD/svg11.dtd">
<svg version="1.1" id="Layer_1" xmlns="http://www.w3.org/2000/svg" xmlns:xlink="http://www.w3.org/1999/xlink" x="0px" y="0px"
	 width="50px" height="50px" viewBox="0 0 50 50" enable-background="new 0 0 50 50" xml:space="preserve">
<g>
	<path fill="#FBB03B" d="M25.113,49.875c-13.785,0-25-11.215-25-25c0-13.785,11.215-25,25-25c13.785,0,25,11.215,25,25
		C50.113,38.66,38.898,49.875,25.113,49.875z M25.113,3.579c-11.743,0-21.296,9.554-21.296,21.296s9.554,21.295,21.296,21.295
		c11.743,0,21.296-9.553,21.296-21.295S36.856,3.579,25.113,3.579z"/>
</g>
<g>
	<path fill="#FBB03B" d="M35.193,27.769H25.008c-1.022,0-1.852-0.829-1.852-1.852V13.88c0-1.023,0.829-1.852,1.852-1.852
		c1.023,0,1.852,0.829,1.852,1.852v10.185h8.333c1.022,0,1.853,0.829,1.853,1.852C37.046,26.939,36.216,27.769,35.193,27.769z"/>
</g>
</svg>
